# xmcd
#
# Track frame offsets: 
#        182
#        24155
#        46805
#        67677
#        85425
#        109032
#        130040
#        150362
#        169450
#        189882
#
# Disc length: 2735 seconds
#
# Revision: 9
# Processed by: cddbd v1.5.2PL0 Copyright (c) Steve Scherf et al.
# Submitted via: ExactAudioCopy v0.95a5
#
DISCID=6c0aad0a
DTITLE=Boney James - k-Sweet Thing
DYEAR=1997
DGENRE=Fusion
TTITLE0=East Bay
TTITLE1=Nothin' But Love
TTITLE2=Words (Unspoken)
TTITLE3=Sweet Thing
TTITLE4=It`s All Good
TTITLE5=After The Rain
TTITLE6=Innocence
TTITLE7=I Still Dream (feat. Al Jarreau)
TTITLE8=Ivory Coast
TTITLE9=It`s All Good (Remix) (feat. Eric Benet)
EXTD=YEAR: 1997
EXTT0=
EXTT1=
EXTT2=
EXTT3=
EXTT4=
EXTT5=
EXTT6=
EXTT7=
EXTT8=
EXTT9=
PLAYORDER=
